VIDEO INFO

Format                           : Matroska
File size                        : 1.37 GiB
Duration                         : 1h 35mn
Overall bit rate                 : 2 051 Kbps
Encoded date                     : UTC 2011-07-24 10:14:17
Writing application              : mkvmerge v4.9.1 (\'Ich will\') gemaakt op Jul 11 2011 23:53:15
Writing library                  : libebml v1.2.1 + libmatroska v1.1.1

Video
ID                               : 1
Format                           : AVC
Format/Info                      : Advanced Video Codec
Format profile                   : High@L4.1
Format settings, CABAC           : Yes
Format settings, ReFrames        : 3 frames
Format settings, GOP             : M=4, N=16
Codec ID                         : V_MPEG4/ISO/AVC
Duration                         : 1h 35mn
Bit rate                         : 1 295 Kbps
Width                            : 1 024 pixels
Height                           : 554 pixels
Display aspect ratio             : 16:9
Frame rate                       : 23.976 fps
Color space                      : YUV
Chroma subsampling               : 4:2:0
Bit depth                        : 8 bits
Scan type                        : Progressive
Bits/(Pixel*Frame)               : 0.095
Stream size                      : 859 MiB (61%)
Writing library                  : x264 core 104 r1713 c276662
Encoding settings                : cabac=1 / ref=3 / deblock=1:0:0 / analyse=0x3:0x133 / me=umh / subme=7 / psy=1 / psy_rd=1.00:0.00 / mixed_ref=1 / me_range=16 / chroma_me=1 / trellis=1 / 8x8dct=1 / cqm=0 / deadzone=21,11 / fast_pskip=1 / chroma_qp_offset=-2 / threads=3 / sliced_threads=0 / nr=0 / decimate=1 / interlaced=0 / constrained_intra=0 / bframes=3 / b_pyramid=0 / b_adapt=1 / b_bias=0 / direct=1 / weightb=1 / open_gop=0 / weightp=2 / keyint=250 / keyint_min=23 / scenecut=40 / intra_refresh=0 / rc_lookahead=40 / rc=2pass / mbtree=1 / bitrate=1295 / ratetol=1.0 / qcomp=0.60 / qpmin=10 / qpmax=51 / qpstep=4 / cplxblur=20.0 / qblur=0.5 / ip_ratio=1.40 / aq=1:1.00
Language                         : English

Audio
ID                               : 2
Format                           : DTS
Format/Info                      : Digital Theater Systems
Codec ID                         : A_DTS
Duration                         : 1h 35mn
Bit rate mode                    : Constant
Bit rate                         : 755 Kbps
Channel(s)                       : 6 channels
Channel positions                : Front: L C R, Side: L R, LFE
Sampling rate                    : 48.0 KHz
Bit depth                        : 24 bits
Compression mode                 : Lossy
Stream size                      : 516 MiB (37%)
Language                         : English

Text
ID                               : 3
Format                           : UTF-8
Codec ID                         : S_TEXT/UTF8
Codec ID/Info                    : UTF-8 Plain Text
Language                         : Dutch

----------------------------

Verenigde Staten
Sciencefiction / Komedie
96 minuten

geregisseerd door Ron Underwood
met Kevin Bacon, Fred Ward en Finn Carter

Het kleine woestijndorpje Perfection wordt opgeschrikt door enorme zandwormen die mensen met huid en haar opslokken. Twee klusjesmannen en een seismologe gaan op onderzoek uit, en stellen vast dat de monsterwormen zich door het woestijnzand moeiteloos kunnen voortbewegen. Bovendien worden de wormen aangetrokken door de trillingen die de inwoners van het dorpje veroorzaken.

-Ondertiteling (nederlands) in de film met de mogelijkheid deze in/uit te schakelen of zelfs een externe ondertiteling te gebruiken als deze niet bevalt.